<svg width="50" height="50" viewBox="0 0 50 50" fill="none" xmlns="http://www.w3.org/2000/svg">
<rect width="50" height="50" fill="#E5E5E5"/>
<rect width="1956" height="1084" transform="translate(-1191 -176)" fill="#F2F2F2"/>
<g filter="url(#filter0_d)">
<rect x="-798" y="-134" width="1083" height="204" rx="15" fill="white"/>
</g>
<circle cx="25" cy="25" r="25" fill="#FFC480"/>
<path d="M36.7613 13.4693C33.3143 10.1769 27.7055 10.1769 24.2583 13.4693L12.8045 24.4098C10.3985 26.7081 10.3985 30.4475 12.8045 32.7457C15.2103 35.0436 19.1252 35.0436 21.5315 32.7457L32.9854 21.8048C34.3502 20.5009 34.3502 18.3796 32.9854 17.0761C32.3243 16.4445 31.4452 16.0966 30.5101 16.0966C29.5751 16.0966 28.696 16.4444 28.0347 17.076L18.4679 26.2139C18.1435 26.5237 18.1435 27.0261 18.4679 27.336C18.7923 27.6458 19.3183 27.6458 19.6426 27.336L29.2093 18.1982C29.5568 17.8663 30.0189 17.6835 30.5101 17.6835C31.0014 17.6835 31.4632 17.8662 31.8105 18.1982C32.5276 18.883 32.5276 19.9976 31.8105 20.6827L20.3569 31.6235C18.5985 33.3029 15.7375 33.3028 13.9793 31.6236C12.2211 29.9442 12.2211 27.2114 13.9793 25.5319L25.4331 14.5914C28.2325 11.9177 32.7875 11.9177 35.5867 14.5914C36.9428 15.8866 37.6896 17.6087 37.6896 19.4405C37.6897 21.2723 36.9428 22.9945 35.5867 24.2897L26.0202 33.4276C25.6958 33.7375 25.6958 34.2398 26.0202 34.5496C26.1824 34.7046 26.395 34.782 26.6076 34.782C26.8202 34.782 27.0328 34.7046 27.1949 34.5496L36.7613 25.4117C38.4312 23.8168 39.3509 21.6961 39.3508 19.4404C39.3508 17.1848 38.4313 15.0642 36.7613 13.4693Z" fill="#FF6C40"/>
<defs>
<filter id="filter0_d" x="-808" y="-140" width="1103" height="224" filterUnits="userSpaceOnUse" color-interpolation-filters="sRGB">
<feFlood flood-opacity="0" result="BackgroundImageFix"/>
<feColorMatrix in="SourceAlpha" type="matrix" values="0 0 0 0 0 0 0 0 0 0 0 0 0 0 0 0 0 0 127 0"/>
<feOffset dy="4"/>
<feGaussianBlur stdDeviation="5"/>
<feColorMatrix type="matrix" values="0 0 0 0 0 0 0 0 0 0 0 0 0 0 0 0 0 0 0.1 0"/>
<feBlend mode="normal" in2="BackgroundImageFix" result="effect1_dropShadow"/>
<feBlend mode="normal" in="SourceGraphic" in2="effect1_dropShadow" result="shape"/>
</filter>
</defs>
</svg>
